<svg width="44" height="43" viewBox="0 0 44 43" fill="none" xmlns="http://www.w3.org/2000/svg">
<path d="M36.1335 37.6667C32.3112 37.6667 28.5856 36.8222 24.9566 35.1334C21.3263 33.4445 18.1115 31.1926 15.3121 28.3778C12.5115 25.563 10.2597 22.3405 8.55657 18.7102C6.85227 15.0812 6.00012 11.3556 6.00012 7.53335V6.60002C6.00012 6.27409 6.02975 5.96298 6.08901 5.66669H16.489L18.1335 14.6L13.0668 19.7111C14.3112 21.8445 15.8745 23.8445 17.7566 25.7111C19.6375 27.5778 21.7038 29.1926 23.9557 30.5556L29.1112 25.4L38.0001 27.1778V37.5778C37.7038 37.6074 37.3927 37.6299 37.0668 37.6454C36.7409 37.6596 36.4298 37.6667 36.1335 37.6667Z" fill="#333533"/>
</svg>
