<svg width="44" height="44" viewBox="0 0 44 44" fill="none" xmlns="http://www.w3.org/2000/svg">
<path fill-rule="evenodd" clip-rule="evenodd" d="M11.3335 4.22211C9.91897 4.22211 8.56241 4.78401 7.56222 5.7842C6.56203 6.7844 6.00012 8.14095 6.00012 9.55544V34.4443C6.00012 35.8588 6.56203 37.2154 7.56222 38.2156C8.56241 39.2158 9.91897 39.7777 11.3335 39.7777H22.0001C23.4146 39.7777 24.7712 39.2158 25.7714 38.2156C26.7716 37.2154 27.3335 35.8588 27.3335 34.4443V9.55544C27.3335 8.14095 26.7716 6.7844 25.7714 5.7842C24.7712 4.78401 23.4146 4.22211 22.0001 4.22211H11.3335ZM29.6321 13.6319C29.9655 13.2986 30.4176 13.1114 30.889 13.1114C31.3604 13.1114 31.8125 13.2986 32.1459 13.6319L39.257 20.743C39.5903 21.0764 39.7775 21.5285 39.7775 21.9999C39.7775 22.4713 39.5903 22.9234 39.257 23.2568L32.1459 30.3679C31.8106 30.6917 31.3615 30.8709 30.8954 30.8669C30.4293 30.8628 29.9834 30.6758 29.6538 30.3462C29.3242 30.0166 29.1372 29.5707 29.1331 29.1046C29.1291 28.6385 29.3083 28.1894 29.6321 27.8541L33.7086 23.7777H18.4446C17.9731 23.7777 17.5209 23.5904 17.1875 23.257C16.8541 22.9236 16.6668 22.4714 16.6668 21.9999C16.6668 21.5284 16.8541 21.0762 17.1875 20.7428C17.5209 20.4094 17.9731 20.2221 18.4446 20.2221H33.7086L29.6321 16.1457C29.2988 15.8123 29.1116 15.3602 29.1116 14.8888C29.1116 14.4174 29.2988 13.9653 29.6321 13.6319V13.6319Z" fill="#333533"/>
</svg>
