<svg width="208" height="208" viewBox="0 0 208 208" fill="none" xmlns="http://www.w3.org/2000/svg">
<g filter="url(#filter0_d_15_31)">
<circle cx="104" cy="100" r="100" fill="#333533"/>
<g clip-path="url(#clip0_15_31)">
<path d="M84.7345 94.8561C85.0935 94.8339 85.4524 94.7895 85.8114 94.7932C102.879 94.9709 119.942 95.1966 137.009 95.2854C139.977 95.3002 142.993 95.0005 145.909 94.3936C149.617 93.6238 152.567 91.459 154.099 87.2847C155.823 82.5849 153.673 77.3559 149.418 75.5648C147.171 74.6175 144.892 74.6175 142.62 74.6101C112.837 74.5508 83.0581 74.5471 53.2756 74.5471C47.7727 74.5471 42.2662 74.6212 36.7634 74.7026C35.8086 74.7174 35.3572 74.2474 35.7679 73.3481C37.2445 70.099 38.2066 66.4909 40.6675 63.8931C42.5771 61.8836 44.8344 60.5403 47.4841 60.4848C56.014 60.3035 64.5476 60.1591 73.0813 60.1258C94.926 60.037 116.771 59.9926 138.616 60C142.279 60 145.987 60.0296 149.599 60.6106C156.323 61.6949 162.459 64.3741 166.614 70.9057C168.18 73.3666 169.264 76.1421 169.531 79.2099C169.882 83.251 169.79 87.2736 168.542 91.1333C166.774 96.6102 163.706 100.936 159.276 104.026C153.655 107.945 147.423 109.059 140.965 109.181C136.403 109.266 131.825 109.566 127.273 109.303C124.472 109.144 121.689 108.208 118.939 107.435C116.597 106.78 114.317 105.858 112.008 105.066C109.577 104.234 107.145 103.405 104.707 102.59C102.39 101.817 100.062 101.077 97.7459 100.292C95.5514 99.5485 93.3681 98.764 91.1773 98.0091C89.6823 97.4947 88.1687 97.0395 86.6811 96.4844C85.9557 96.2143 85.2785 95.7739 84.5754 95.4075C84.6346 95.2299 84.6864 95.0412 84.7345 94.8561Z" fill="#FFD700"/>
<path d="M182.201 139.774C181.769 139.852 181.336 140.004 180.903 140.004C170.663 139.996 160.423 139.993 150.184 139.948C145.01 139.926 139.881 139.275 134.848 137.983C131.381 137.095 128.01 135.755 124.59 134.634C121.334 133.565 118.066 132.547 114.813 131.455C112.537 130.693 110.291 129.831 108.019 129.046C105.872 128.302 103.711 127.596 101.561 126.87C99.0856 126.034 96.6098 125.186 94.1341 124.354C91.8582 123.588 89.5787 122.844 87.3065 122.074C84.9159 121.264 82.529 120.424 80.1384 119.61C77.9476 118.866 75.7494 118.14 73.5587 117.4C71.0793 116.564 68.611 115.698 66.1241 114.891C63.6817 114.096 61.2245 113.344 58.771 112.597C57.6645 112.26 56.5506 111.96 55.4367 111.657C46.7921 109.314 37.9846 109.847 29.2105 109.736C27.9781 109.722 26.6977 109.388 25.532 108.911C24.3367 108.419 23.6928 106.635 24.1443 105.299C24.9547 102.894 26.0205 100.588 26.7273 98.1497C27.56 95.2854 29.2031 94.7451 31.6751 94.8783C38.4879 95.2484 45.3193 95.2151 52.1321 95.5889C54.6596 95.7258 57.1723 96.4733 59.6629 97.0765C62.442 97.75 65.2101 98.5086 67.9522 99.3487C70.1985 100.041 72.4004 100.914 74.6245 101.695C76.8078 102.461 78.9986 103.205 81.1857 103.967C83.6133 104.815 86.0372 105.68 88.4685 106.52C90.6148 107.264 92.7686 107.982 94.915 108.726C97.3019 109.551 99.6814 110.406 102.072 111.228C104.303 111.994 106.546 112.719 108.777 113.481C111.005 114.244 113.226 115.032 115.453 115.798C117.803 116.605 120.161 117.389 122.51 118.196C124.701 118.951 126.888 119.717 129.075 120.487C131.336 121.282 133.598 122.096 135.859 122.892C138.246 123.732 140.636 124.565 143.027 125.394C145.173 126.137 147.323 126.874 149.473 127.618C151.901 128.461 154.325 129.327 156.76 130.156C159.032 130.933 161.319 131.663 163.591 132.436C165.737 133.169 167.876 133.938 170.023 134.679C172.413 135.504 174.815 136.292 177.198 137.147C178.904 137.757 180.588 138.446 182.279 139.101C182.253 139.33 182.227 139.552 182.201 139.774Z" fill="#FFD700"/>
</g>
</g>
<defs>
<filter id="filter0_d_15_31" x="0" y="0" width="208" height="208" filterUnits="userSpaceOnUse" color-interpolation-filters="sRGB">
<feFlood flood-opacity="0" result="BackgroundImageFix"/>
<feColorMatrix in="SourceAlpha" type="matrix" values="0 0 0 0 0 0 0 0 0 0 0 0 0 0 0 0 0 0 127 0" result="hardAlpha"/>
<feOffset dy="4"/>
<feGaussianBlur stdDeviation="2"/>
<feComposite in2="hardAlpha" operator="out"/>
<feColorMatrix type="matrix" values="0 0 0 0 0 0 0 0 0 0 0 0 0 0 0 0 0 0 0.25 0"/>
<feBlend mode="normal" in2="BackgroundImageFix" result="effect1_dropShadow_15_31"/>
<feBlend mode="normal" in="SourceGraphic" in2="effect1_dropShadow_15_31" result="shape"/>
</filter>
<clipPath id="clip0_15_31">
<rect width="158.279" height="80" fill="white" transform="translate(24 60)"/>
</clipPath>
</defs>
</svg>
