<svg width="44" height="44" viewBox="0 0 44 44" fill="none" xmlns="http://www.w3.org/2000/svg">
<path d="M36.2834 11.7168L29.6167 5.0501C29.3627 4.80247 29.0214 4.66477 28.6667 4.66677H15.3334C14.6261 4.66677 13.9479 4.94772 13.4478 5.44782C12.9477 5.94791 12.6667 6.62619 12.6667 7.33344V10.0001H10C9.2928 10.0001 8.61452 10.2811 8.11442 10.7812C7.61433 11.2812 7.33337 11.9595 7.33337 12.6668V36.6668C7.33337 37.374 7.61433 38.0523 8.11442 38.5524C8.61452 39.0525 9.2928 39.3334 10 39.3334H28.6667C29.374 39.3334 30.0522 39.0525 30.5523 38.5524C31.0524 38.0523 31.3334 37.374 31.3334 36.6668V34.0001H34C34.7073 34.0001 35.3856 33.7192 35.8857 33.2191C36.3858 32.719 36.6667 32.0407 36.6667 31.3334V12.6668C36.6687 12.312 36.531 11.9708 36.2834 11.7168V11.7168ZM23.3334 32.6668H15.3334C14.9798 32.6668 14.6406 32.5263 14.3906 32.2762C14.1405 32.0262 14 31.6871 14 31.3334C14 30.9798 14.1405 30.6407 14.3906 30.3906C14.6406 30.1406 14.9798 30.0001 15.3334 30.0001H23.3334C23.687 30.0001 24.0261 30.1406 24.2762 30.3906C24.5262 30.6407 24.6667 30.9798 24.6667 31.3334C24.6667 31.6871 24.5262 32.0262 24.2762 32.2762C24.0261 32.5263 23.687 32.6668 23.3334 32.6668ZM23.3334 27.3334H15.3334C14.9798 27.3334 14.6406 27.193 14.3906 26.9429C14.1405 26.6929 14 26.3537 14 26.0001C14 25.6465 14.1405 25.3073 14.3906 25.0573C14.6406 24.8072 14.9798 24.6668 15.3334 24.6668H23.3334C23.687 24.6668 24.0261 24.8072 24.2762 25.0573C24.5262 25.3073 24.6667 25.6465 24.6667 26.0001C24.6667 26.3537 24.5262 26.6929 24.2762 26.9429C24.0261 27.193 23.687 27.3334 23.3334 27.3334ZM34 31.3334H31.3334V18.0001C31.3354 17.6454 31.1977 17.3041 30.95 17.0501L24.2834 10.3834C24.0294 10.1358 23.6881 9.9981 23.3334 10.0001H15.3334V7.33344H28.1167L34 13.2168V31.3334Z" fill="#333533"/>
</svg>
