<svg width="1837" height="1837" viewBox="0 0 1837 1837" fill="none" xmlns="http://www.w3.org/2000/svg">
<circle cx="918.5" cy="918.5" r="918.5" fill="#333533"/>
<g clip-path="url(#clip0_118_3265)">
<path d="M741.548 871.251C744.845 871.047 748.142 870.639 751.439 870.673C908.202 872.304 1064.93 874.378 1221.69 875.193C1248.95 875.329 1276.66 872.576 1303.44 867.002C1337.5 859.932 1364.59 840.048 1378.66 801.707C1394.5 758.539 1374.75 710.511 1335.66 694.06C1315.03 685.358 1294.09 685.358 1273.22 685.29C999.669 684.746 726.15 684.712 452.597 684.712C402.054 684.712 351.476 685.392 300.933 686.14C292.163 686.276 288.016 681.959 291.789 673.7C305.351 643.856 314.189 610.716 336.792 586.855C354.331 568.398 375.065 556.059 399.402 555.55C477.75 553.884 556.131 552.558 634.513 552.253C835.157 551.437 1035.8 551.029 1236.44 551.097C1270.1 551.097 1304.15 551.369 1337.33 556.705C1399.09 566.664 1455.44 591.273 1493.61 651.266C1507.99 673.869 1517.95 699.362 1520.4 727.54C1523.63 764.657 1522.78 801.605 1511.32 837.056C1495.08 887.362 1466.9 927.096 1426.21 955.478C1374.58 991.474 1317.34 1001.7 1258.03 1002.83C1216.12 1003.61 1174.07 1006.36 1132.26 1003.95C1106.53 1002.49 1080.97 993.887 1055.72 986.783C1034.2 980.767 1013.27 972.303 992.055 965.03C969.724 957.382 947.392 949.768 924.993 942.29C903.715 935.186 882.335 928.388 861.057 921.182C840.901 914.35 820.847 907.144 800.725 900.21C786.993 895.486 773.091 891.305 759.427 886.206C752.764 883.725 746.544 879.68 740.086 876.315C740.63 874.684 741.106 872.95 741.548 871.251Z" fill="#FFD700"/>
<path d="M1636.78 1283.83C1632.8 1284.54 1628.83 1285.93 1624.85 1285.93C1530.8 1285.86 1436.75 1285.83 1342.7 1285.42C1295.18 1285.22 1248.07 1279.24 1201.84 1267.37C1169.99 1259.22 1139.03 1246.91 1107.62 1236.61C1077.71 1226.79 1047.7 1217.44 1017.82 1207.42C996.914 1200.41 976.282 1192.49 955.412 1185.29C935.698 1178.46 915.848 1171.96 896.1 1165.3C873.36 1157.62 850.621 1149.84 827.881 1142.19C806.977 1135.15 786.039 1128.32 765.169 1121.25C743.212 1113.81 721.288 1106.09 699.33 1098.61C679.208 1091.78 659.018 1085.12 638.896 1078.32C616.122 1070.64 593.451 1062.68 570.609 1055.28C548.176 1047.97 525.606 1041.07 503.071 1034.2C492.908 1031.11 482.677 1028.35 472.446 1025.57C393.045 1004.05 312.148 1008.95 231.557 1007.93C220.239 1007.79 208.478 1004.73 197.771 1000.35C186.792 995.826 180.878 979.443 185.025 967.173C192.469 945.079 202.258 923.903 208.75 901.503C216.398 875.195 231.489 870.232 254.195 871.456C316.771 874.855 379.517 874.549 442.093 877.982C465.308 879.24 488.387 886.106 511.263 891.646C536.789 897.833 562.214 904.801 587.401 912.516C608.033 918.872 628.257 926.894 648.685 934.066C668.739 941.102 688.861 947.934 708.95 954.936C731.247 962.72 753.511 970.674 775.842 978.389C795.557 985.221 815.339 991.815 835.053 998.647C856.977 1006.23 878.833 1014.08 900.79 1021.62C921.286 1028.66 941.884 1035.32 962.38 1042.32C982.843 1049.33 1003.24 1056.57 1023.7 1063.6C1045.28 1071.01 1066.93 1078.22 1088.52 1085.63C1108.64 1092.56 1128.73 1099.6 1148.82 1106.67C1169.58 1113.98 1190.35 1121.45 1211.12 1128.76C1233.04 1136.48 1255 1144.13 1276.96 1151.74C1296.67 1158.57 1316.42 1165.34 1336.17 1172.17C1358.47 1179.92 1380.73 1187.87 1403.1 1195.48C1423.97 1202.62 1444.97 1209.32 1465.84 1216.42C1485.56 1223.15 1505.2 1230.22 1524.92 1237.02C1546.88 1244.6 1568.94 1251.84 1590.83 1259.69C1606.49 1265.3 1621.96 1271.62 1637.49 1277.64C1637.26 1279.75 1637.02 1281.79 1636.78 1283.83Z" fill="#FFD700"/>
</g>
<defs>
<clipPath id="clip0_118_3265">
<rect width="1453.79" height="734.8" fill="white" transform="translate(183.699 551.099)"/>
</clipPath>
</defs>
</svg>
